<mxfile host="app.diagrams.net" modified="2020-10-01T04:14:44.265Z" agent="5.0 (X11; Linux x86_64) AppleWebKit/537.36 (KHTML, like Gecko) Chrome/84.0.4147.135 Safari/537.36" etag="OkIQYKAI-CwagXwH7W4t" version="13.7.7" type="github">
  <diagram id="C5RBs43oDa-KdzZeNtuy" name="Page-1">
    <mxGraphModel dx="868" dy="411" grid="1" gridSize="10" guides="1" tooltips="1" connect="1" arrows="1" fold="1" page="1" pageScale="1" pageWidth="827" pageHeight="1169" math="0" shadow="0">
      <root>
        <mxCell id="WIyWlLk6GJQsqaUBKTNV-0" />
        <mxCell id="WIyWlLk6GJQsqaUBKTNV-1" parent="WIyWlLk6GJQsqaUBKTNV-0" />
        <mxCell id="WIyWlLk6GJQsqaUBKTNV-3" value="Landing Page" style="rounded=1;whiteSpace=wrap;html=1;fontSize=12;glass=0;strokeWidth=1;shadow=0;" parent="WIyWlLk6GJQsqaUBKTNV-1" vertex="1">
          <mxGeometry x="160" y="80" width="120" height="40" as="geometry" />
        </mxCell>
        <mxCell id="6nzBjBsNqCrcRS6qN-k_-0" value="Check Credit Score Button&amp;nbsp;" style="rounded=0;whiteSpace=wrap;html=1;" vertex="1" parent="WIyWlLk6GJQsqaUBKTNV-1">
          <mxGeometry x="160" y="180" width="120" height="60" as="geometry" />
        </mxCell>
        <mxCell id="6nzBjBsNqCrcRS6qN-k_-3" value="" style="endArrow=classic;html=1;exitX=0.5;exitY=1;exitDx=0;exitDy=0;entryX=0.5;entryY=0;entryDx=0;entryDy=0;" edge="1" parent="WIyWlLk6GJQsqaUBKTNV-1" source="6nzBjBsNqCrcRS6qN-k_-0" target="6nzBjBsNqCrcRS6qN-k_-5">
          <mxGeometry width="50" height="50" relative="1" as="geometry">
            <mxPoint x="390" y="280" as="sourcePoint" />
            <mxPoint x="440" y="230" as="targetPoint" />
            <Array as="points">
              <mxPoint x="220" y="270" />
            </Array>
          </mxGeometry>
        </mxCell>
        <mxCell id="6nzBjBsNqCrcRS6qN-k_-4" value="" style="endArrow=classic;html=1;entryX=0.5;entryY=0;entryDx=0;entryDy=0;exitX=0.5;exitY=1;exitDx=0;exitDy=0;" edge="1" parent="WIyWlLk6GJQsqaUBKTNV-1" source="WIyWlLk6GJQsqaUBKTNV-3" target="6nzBjBsNqCrcRS6qN-k_-0">
          <mxGeometry width="50" height="50" relative="1" as="geometry">
            <mxPoint x="220" y="125" as="sourcePoint" />
            <mxPoint x="220" y="175" as="targetPoint" />
          </mxGeometry>
        </mxCell>
        <mxCell id="6nzBjBsNqCrcRS6qN-k_-5" value="If user alredy login" style="rhombus;whiteSpace=wrap;html=1;" vertex="1" parent="WIyWlLk6GJQsqaUBKTNV-1">
          <mxGeometry x="150" y="320" width="140" height="110" as="geometry" />
        </mxCell>
        <mxCell id="6nzBjBsNqCrcRS6qN-k_-6" value="" style="endArrow=classic;html=1;exitX=1;exitY=0.5;exitDx=0;exitDy=0;" edge="1" parent="WIyWlLk6GJQsqaUBKTNV-1" source="6nzBjBsNqCrcRS6qN-k_-5">
          <mxGeometry width="50" height="50" relative="1" as="geometry">
            <mxPoint x="420" y="430" as="sourcePoint" />
            <mxPoint x="470" y="375" as="targetPoint" />
          </mxGeometry>
        </mxCell>
        <mxCell id="6nzBjBsNqCrcRS6qN-k_-7" value="Not Logined" style="text;html=1;align=center;verticalAlign=middle;resizable=0;points=[];autosize=1;" vertex="1" parent="WIyWlLk6GJQsqaUBKTNV-1">
          <mxGeometry x="340" y="380" width="80" height="20" as="geometry" />
        </mxCell>
        <mxCell id="6nzBjBsNqCrcRS6qN-k_-8" value="" style="endArrow=classic;html=1;exitX=0.5;exitY=1;exitDx=0;exitDy=0;" edge="1" parent="WIyWlLk6GJQsqaUBKTNV-1" source="6nzBjBsNqCrcRS6qN-k_-5">
          <mxGeometry width="50" height="50" relative="1" as="geometry">
            <mxPoint x="420" y="430" as="sourcePoint" />
            <mxPoint x="220" y="490" as="targetPoint" />
          </mxGeometry>
        </mxCell>
        <mxCell id="6nzBjBsNqCrcRS6qN-k_-9" value="Check credit score form with prefield firstname, last name, email and rest of the field user will fill" style="ellipse;whiteSpace=wrap;html=1;aspect=fixed;" vertex="1" parent="WIyWlLk6GJQsqaUBKTNV-1">
          <mxGeometry x="142.5" y="490" width="155" height="155" as="geometry" />
        </mxCell>
        <mxCell id="6nzBjBsNqCrcRS6qN-k_-10" value="User will redirect to login or register page" style="ellipse;whiteSpace=wrap;html=1;aspect=fixed;" vertex="1" parent="WIyWlLk6GJQsqaUBKTNV-1">
          <mxGeometry x="470" y="320" width="125" height="125" as="geometry" />
        </mxCell>
        <mxCell id="6nzBjBsNqCrcRS6qN-k_-11" value="If user paid or not for check credit score" style="rhombus;whiteSpace=wrap;html=1;" vertex="1" parent="WIyWlLk6GJQsqaUBKTNV-1">
          <mxGeometry x="150" y="730" width="140" height="130" as="geometry" />
        </mxCell>
        <mxCell id="6nzBjBsNqCrcRS6qN-k_-12" value="" style="endArrow=classic;html=1;entryX=0.5;entryY=0;entryDx=0;entryDy=0;exitX=0.5;exitY=1;exitDx=0;exitDy=0;" edge="1" parent="WIyWlLk6GJQsqaUBKTNV-1" source="6nzBjBsNqCrcRS6qN-k_-9" target="6nzBjBsNqCrcRS6qN-k_-11">
          <mxGeometry width="50" height="50" relative="1" as="geometry">
            <mxPoint x="220" y="650" as="sourcePoint" />
            <mxPoint x="370" y="660" as="targetPoint" />
          </mxGeometry>
        </mxCell>
        <mxCell id="6nzBjBsNqCrcRS6qN-k_-13" value="" style="endArrow=classic;html=1;exitX=1;exitY=0.5;exitDx=0;exitDy=0;" edge="1" parent="WIyWlLk6GJQsqaUBKTNV-1" source="6nzBjBsNqCrcRS6qN-k_-11">
          <mxGeometry width="50" height="50" relative="1" as="geometry">
            <mxPoint x="360" y="770" as="sourcePoint" />
            <mxPoint x="450" y="795" as="targetPoint" />
          </mxGeometry>
        </mxCell>
        <mxCell id="6nzBjBsNqCrcRS6qN-k_-14" value="" style="endArrow=classic;html=1;exitX=0.5;exitY=1;exitDx=0;exitDy=0;entryX=0.5;entryY=0;entryDx=0;entryDy=0;" edge="1" parent="WIyWlLk6GJQsqaUBKTNV-1" source="6nzBjBsNqCrcRS6qN-k_-11">
          <mxGeometry width="50" height="50" relative="1" as="geometry">
            <mxPoint x="300" y="890" as="sourcePoint" />
            <mxPoint x="220" y="1130" as="targetPoint" />
          </mxGeometry>
        </mxCell>
        <mxCell id="6nzBjBsNqCrcRS6qN-k_-15" value="" style="endArrow=classic;html=1;exitX=0.5;exitY=1;exitDx=0;exitDy=0;" edge="1" parent="WIyWlLk6GJQsqaUBKTNV-1" source="6nzBjBsNqCrcRS6qN-k_-10" target="6nzBjBsNqCrcRS6qN-k_-16">
          <mxGeometry width="50" height="50" relative="1" as="geometry">
            <mxPoint x="390" y="500" as="sourcePoint" />
            <mxPoint x="533" y="530" as="targetPoint" />
          </mxGeometry>
        </mxCell>
        <mxCell id="6nzBjBsNqCrcRS6qN-k_-16" value="check &lt;br&gt;if user already member of moneymall&amp;nbsp; or not" style="rhombus;whiteSpace=wrap;html=1;" vertex="1" parent="WIyWlLk6GJQsqaUBKTNV-1">
          <mxGeometry x="459.38" y="480" width="146.25" height="140" as="geometry" />
        </mxCell>
        <mxCell id="6nzBjBsNqCrcRS6qN-k_-18" value="" style="endArrow=none;html=1;exitX=1;exitY=0.5;exitDx=0;exitDy=0;" edge="1" parent="WIyWlLk6GJQsqaUBKTNV-1" source="6nzBjBsNqCrcRS6qN-k_-16">
          <mxGeometry width="50" height="50" relative="1" as="geometry">
            <mxPoint x="390" y="570" as="sourcePoint" />
            <mxPoint x="770" y="550" as="targetPoint" />
          </mxGeometry>
        </mxCell>
        <mxCell id="6nzBjBsNqCrcRS6qN-k_-19" value="doesn&#39;t have account" style="text;html=1;align=center;verticalAlign=middle;resizable=0;points=[];autosize=1;" vertex="1" parent="WIyWlLk6GJQsqaUBKTNV-1">
          <mxGeometry x="605" y="550" width="130" height="20" as="geometry" />
        </mxCell>
        <mxCell id="6nzBjBsNqCrcRS6qN-k_-20" value="" style="endArrow=none;html=1;" edge="1" parent="WIyWlLk6GJQsqaUBKTNV-1">
          <mxGeometry width="50" height="50" relative="1" as="geometry">
            <mxPoint x="770" y="550" as="sourcePoint" />
            <mxPoint x="770" y="390" as="targetPoint" />
          </mxGeometry>
        </mxCell>
        <mxCell id="6nzBjBsNqCrcRS6qN-k_-21" value="" style="endArrow=classic;html=1;" edge="1" parent="WIyWlLk6GJQsqaUBKTNV-1">
          <mxGeometry width="50" height="50" relative="1" as="geometry">
            <mxPoint x="770" y="390" as="sourcePoint" />
            <mxPoint x="600" y="390" as="targetPoint" />
          </mxGeometry>
        </mxCell>
        <mxCell id="6nzBjBsNqCrcRS6qN-k_-22" value="redirect to signpu page" style="text;html=1;align=center;verticalAlign=middle;resizable=0;points=[];autosize=1;" vertex="1" parent="WIyWlLk6GJQsqaUBKTNV-1">
          <mxGeometry x="630" y="450" width="140" height="20" as="geometry" />
        </mxCell>
        <mxCell id="6nzBjBsNqCrcRS6qN-k_-24" value="already have account" style="text;html=1;align=center;verticalAlign=middle;resizable=0;points=[];autosize=1;" vertex="1" parent="WIyWlLk6GJQsqaUBKTNV-1">
          <mxGeometry x="540" y="645" width="130" height="20" as="geometry" />
        </mxCell>
        <mxCell id="6nzBjBsNqCrcRS6qN-k_-25" value="" style="endArrow=none;html=1;exitX=0.5;exitY=1;exitDx=0;exitDy=0;" edge="1" parent="WIyWlLk6GJQsqaUBKTNV-1" source="6nzBjBsNqCrcRS6qN-k_-16">
          <mxGeometry width="50" height="50" relative="1" as="geometry">
            <mxPoint x="380" y="600" as="sourcePoint" />
            <mxPoint x="533" y="710" as="targetPoint" />
          </mxGeometry>
        </mxCell>
        <mxCell id="6nzBjBsNqCrcRS6qN-k_-27" value="" style="endArrow=none;html=1;" edge="1" parent="WIyWlLk6GJQsqaUBKTNV-1">
          <mxGeometry width="50" height="50" relative="1" as="geometry">
            <mxPoint x="530" y="710" as="sourcePoint" />
            <mxPoint x="400" y="710" as="targetPoint" />
          </mxGeometry>
        </mxCell>
        <mxCell id="6nzBjBsNqCrcRS6qN-k_-29" value="" style="endArrow=none;html=1;" edge="1" parent="WIyWlLk6GJQsqaUBKTNV-1">
          <mxGeometry width="50" height="50" relative="1" as="geometry">
            <mxPoint x="400" y="710" as="sourcePoint" />
            <mxPoint x="400" y="430" as="targetPoint" />
          </mxGeometry>
        </mxCell>
        <mxCell id="6nzBjBsNqCrcRS6qN-k_-30" value="" style="endArrow=classic;html=1;entryX=0;entryY=1;entryDx=0;entryDy=0;" edge="1" parent="WIyWlLk6GJQsqaUBKTNV-1" target="6nzBjBsNqCrcRS6qN-k_-10">
          <mxGeometry width="50" height="50" relative="1" as="geometry">
            <mxPoint x="400" y="430" as="sourcePoint" />
            <mxPoint x="430" y="550" as="targetPoint" />
          </mxGeometry>
        </mxCell>
        <mxCell id="6nzBjBsNqCrcRS6qN-k_-31" value="redirect to login page" style="text;html=1;align=center;verticalAlign=middle;resizable=0;points=[];autosize=1;" vertex="1" parent="WIyWlLk6GJQsqaUBKTNV-1">
          <mxGeometry x="365" y="670" width="130" height="20" as="geometry" />
        </mxCell>
        <mxCell id="6nzBjBsNqCrcRS6qN-k_-32" value="user will be redirected to payment page" style="ellipse;whiteSpace=wrap;html=1;aspect=fixed;" vertex="1" parent="WIyWlLk6GJQsqaUBKTNV-1">
          <mxGeometry x="450" y="740" width="120" height="120" as="geometry" />
        </mxCell>
        <mxCell id="6nzBjBsNqCrcRS6qN-k_-33" value="Not paid" style="text;html=1;align=center;verticalAlign=middle;resizable=0;points=[];autosize=1;" vertex="1" parent="WIyWlLk6GJQsqaUBKTNV-1">
          <mxGeometry x="310" y="800" width="60" height="20" as="geometry" />
        </mxCell>
        <mxCell id="6nzBjBsNqCrcRS6qN-k_-36" value="User already paid&amp;nbsp;" style="text;html=1;align=center;verticalAlign=middle;resizable=0;points=[];autosize=1;" vertex="1" parent="WIyWlLk6GJQsqaUBKTNV-1">
          <mxGeometry x="220" y="910" width="110" height="20" as="geometry" />
        </mxCell>
        <mxCell id="6nzBjBsNqCrcRS6qN-k_-38" value="user will do payment" style="rhombus;whiteSpace=wrap;html=1;" vertex="1" parent="WIyWlLk6GJQsqaUBKTNV-1">
          <mxGeometry x="445" y="880" width="130" height="100" as="geometry" />
        </mxCell>
        <mxCell id="6nzBjBsNqCrcRS6qN-k_-39" value="" style="endArrow=classic;html=1;exitX=0.5;exitY=1;exitDx=0;exitDy=0;entryX=0.5;entryY=0;entryDx=0;entryDy=0;" edge="1" parent="WIyWlLk6GJQsqaUBKTNV-1" source="6nzBjBsNqCrcRS6qN-k_-32" target="6nzBjBsNqCrcRS6qN-k_-38">
          <mxGeometry width="50" height="50" relative="1" as="geometry">
            <mxPoint x="410" y="980" as="sourcePoint" />
            <mxPoint x="460" y="930" as="targetPoint" />
          </mxGeometry>
        </mxCell>
        <mxCell id="6nzBjBsNqCrcRS6qN-k_-40" value="" style="endArrow=classic;html=1;exitX=0.5;exitY=1;exitDx=0;exitDy=0;" edge="1" parent="WIyWlLk6GJQsqaUBKTNV-1" source="6nzBjBsNqCrcRS6qN-k_-38">
          <mxGeometry width="50" height="50" relative="1" as="geometry">
            <mxPoint x="410" y="980" as="sourcePoint" />
            <mxPoint x="510" y="1020" as="targetPoint" />
          </mxGeometry>
        </mxCell>
        <mxCell id="6nzBjBsNqCrcRS6qN-k_-41" value="success" style="text;html=1;align=center;verticalAlign=middle;resizable=0;points=[];autosize=1;" vertex="1" parent="WIyWlLk6GJQsqaUBKTNV-1">
          <mxGeometry x="510" y="980" width="60" height="20" as="geometry" />
        </mxCell>
        <mxCell id="6nzBjBsNqCrcRS6qN-k_-42" value="" style="endArrow=none;html=1;exitX=1;exitY=0.5;exitDx=0;exitDy=0;" edge="1" parent="WIyWlLk6GJQsqaUBKTNV-1" source="6nzBjBsNqCrcRS6qN-k_-38">
          <mxGeometry width="50" height="50" relative="1" as="geometry">
            <mxPoint x="410" y="980" as="sourcePoint" />
            <mxPoint x="710" y="930" as="targetPoint" />
          </mxGeometry>
        </mxCell>
        <mxCell id="6nzBjBsNqCrcRS6qN-k_-43" value="" style="endArrow=none;html=1;" edge="1" parent="WIyWlLk6GJQsqaUBKTNV-1">
          <mxGeometry width="50" height="50" relative="1" as="geometry">
            <mxPoint x="710" y="930" as="sourcePoint" />
            <mxPoint x="710" y="810" as="targetPoint" />
          </mxGeometry>
        </mxCell>
        <mxCell id="6nzBjBsNqCrcRS6qN-k_-44" value="" style="endArrow=classic;html=1;entryX=1.033;entryY=0.583;entryDx=0;entryDy=0;entryPerimeter=0;" edge="1" parent="WIyWlLk6GJQsqaUBKTNV-1" target="6nzBjBsNqCrcRS6qN-k_-32">
          <mxGeometry width="50" height="50" relative="1" as="geometry">
            <mxPoint x="710" y="810" as="sourcePoint" />
            <mxPoint x="460" y="930" as="targetPoint" />
          </mxGeometry>
        </mxCell>
        <mxCell id="6nzBjBsNqCrcRS6qN-k_-46" value="fail" style="text;html=1;align=center;verticalAlign=middle;resizable=0;points=[];autosize=1;" vertex="1" parent="WIyWlLk6GJQsqaUBKTNV-1">
          <mxGeometry x="615" y="930" width="30" height="20" as="geometry" />
        </mxCell>
        <mxCell id="6nzBjBsNqCrcRS6qN-k_-49" value="give error msg" style="text;html=1;align=center;verticalAlign=middle;resizable=0;points=[];autosize=1;" vertex="1" parent="WIyWlLk6GJQsqaUBKTNV-1">
          <mxGeometry x="625" y="850" width="90" height="20" as="geometry" />
        </mxCell>
        <mxCell id="6nzBjBsNqCrcRS6qN-k_-51" value="save payment details with user id in database." style="whiteSpace=wrap;html=1;aspect=fixed;" vertex="1" parent="WIyWlLk6GJQsqaUBKTNV-1">
          <mxGeometry x="465" y="1020" width="90" height="90" as="geometry" />
        </mxCell>
        <mxCell id="6nzBjBsNqCrcRS6qN-k_-52" value="" style="endArrow=none;html=1;exitX=0.5;exitY=1;exitDx=0;exitDy=0;" edge="1" parent="WIyWlLk6GJQsqaUBKTNV-1" source="6nzBjBsNqCrcRS6qN-k_-51">
          <mxGeometry width="50" height="50" relative="1" as="geometry">
            <mxPoint x="350" y="1100" as="sourcePoint" />
            <mxPoint x="510" y="1190" as="targetPoint" />
          </mxGeometry>
        </mxCell>
        <mxCell id="6nzBjBsNqCrcRS6qN-k_-54" value="" style="endArrow=classic;html=1;entryX=1;entryY=0.5;entryDx=0;entryDy=0;" edge="1" parent="WIyWlLk6GJQsqaUBKTNV-1" target="6nzBjBsNqCrcRS6qN-k_-56">
          <mxGeometry width="50" height="50" relative="1" as="geometry">
            <mxPoint x="510" y="1190" as="sourcePoint" />
            <mxPoint x="300" y="1189" as="targetPoint" />
          </mxGeometry>
        </mxCell>
        <mxCell id="6nzBjBsNqCrcRS6qN-k_-56" value="Call AECB API and get access token, otp-token" style="rhombus;whiteSpace=wrap;html=1;" vertex="1" parent="WIyWlLk6GJQsqaUBKTNV-1">
          <mxGeometry x="150" y="1130" width="140" height="120" as="geometry" />
        </mxCell>
        <mxCell id="6nzBjBsNqCrcRS6qN-k_-58" value="after saved payment details" style="text;html=1;align=center;verticalAlign=middle;resizable=0;points=[];autosize=1;" vertex="1" parent="WIyWlLk6GJQsqaUBKTNV-1">
          <mxGeometry x="310" y="1160" width="160" height="20" as="geometry" />
        </mxCell>
        <mxCell id="6nzBjBsNqCrcRS6qN-k_-59" value="" style="endArrow=classic;html=1;exitX=0.5;exitY=1;exitDx=0;exitDy=0;" edge="1" parent="WIyWlLk6GJQsqaUBKTNV-1" source="6nzBjBsNqCrcRS6qN-k_-56">
          <mxGeometry width="50" height="50" relative="1" as="geometry">
            <mxPoint x="350" y="1260" as="sourcePoint" />
            <mxPoint x="220" y="1330" as="targetPoint" />
          </mxGeometry>
        </mxCell>
        <mxCell id="6nzBjBsNqCrcRS6qN-k_-61" value="fail" style="text;html=1;align=center;verticalAlign=middle;resizable=0;points=[];autosize=1;" vertex="1" parent="WIyWlLk6GJQsqaUBKTNV-1">
          <mxGeometry x="335" y="1280" width="30" height="20" as="geometry" />
        </mxCell>
        <mxCell id="6nzBjBsNqCrcRS6qN-k_-65" value="give error msg&amp;nbsp;" style="text;html=1;align=center;verticalAlign=middle;resizable=0;points=[];autosize=1;" vertex="1" parent="WIyWlLk6GJQsqaUBKTNV-1">
          <mxGeometry x="515" y="1240" width="100" height="20" as="geometry" />
        </mxCell>
        <mxCell id="6nzBjBsNqCrcRS6qN-k_-66" value="success" style="text;html=1;align=center;verticalAlign=middle;resizable=0;points=[];autosize=1;" vertex="1" parent="WIyWlLk6GJQsqaUBKTNV-1">
          <mxGeometry x="220" y="1280" width="60" height="20" as="geometry" />
        </mxCell>
        <mxCell id="6nzBjBsNqCrcRS6qN-k_-67" value="" style="endArrow=classic;html=1;exitX=0.5;exitY=1;exitDx=0;exitDy=0;" edge="1" parent="WIyWlLk6GJQsqaUBKTNV-1" source="6nzBjBsNqCrcRS6qN-k_-56">
          <mxGeometry width="50" height="50" relative="1" as="geometry">
            <mxPoint x="350" y="1260" as="sourcePoint" />
            <mxPoint x="510" y="1300" as="targetPoint" />
          </mxGeometry>
        </mxCell>
        <mxCell id="6nzBjBsNqCrcRS6qN-k_-68" value="" style="endArrow=classic;html=1;" edge="1" parent="WIyWlLk6GJQsqaUBKTNV-1">
          <mxGeometry width="50" height="50" relative="1" as="geometry">
            <mxPoint x="510" y="1300" as="sourcePoint" />
            <mxPoint x="510" y="1190" as="targetPoint" />
          </mxGeometry>
        </mxCell>
        <mxCell id="6nzBjBsNqCrcRS6qN-k_-69" value="OPT going to send user registered phone number and user will enter otp" style="ellipse;whiteSpace=wrap;html=1;aspect=fixed;" vertex="1" parent="WIyWlLk6GJQsqaUBKTNV-1">
          <mxGeometry x="150" y="1330" width="140" height="140" as="geometry" />
        </mxCell>
        <mxCell id="6nzBjBsNqCrcRS6qN-k_-70" value="after enter opt call get credit score api with otp and access token" style="rhombus;whiteSpace=wrap;html=1;" vertex="1" parent="WIyWlLk6GJQsqaUBKTNV-1">
          <mxGeometry x="155" y="1520" width="130" height="130" as="geometry" />
        </mxCell>
        <mxCell id="6nzBjBsNqCrcRS6qN-k_-71" value="" style="endArrow=classic;html=1;exitX=0.5;exitY=1;exitDx=0;exitDy=0;entryX=0.5;entryY=0;entryDx=0;entryDy=0;" edge="1" parent="WIyWlLk6GJQsqaUBKTNV-1" source="6nzBjBsNqCrcRS6qN-k_-69" target="6nzBjBsNqCrcRS6qN-k_-70">
          <mxGeometry width="50" height="50" relative="1" as="geometry">
            <mxPoint x="330" y="1510" as="sourcePoint" />
            <mxPoint x="380" y="1460" as="targetPoint" />
          </mxGeometry>
        </mxCell>
        <mxCell id="6nzBjBsNqCrcRS6qN-k_-72" value="" style="endArrow=classic;html=1;exitX=0.5;exitY=1;exitDx=0;exitDy=0;" edge="1" parent="WIyWlLk6GJQsqaUBKTNV-1" source="6nzBjBsNqCrcRS6qN-k_-70">
          <mxGeometry width="50" height="50" relative="1" as="geometry">
            <mxPoint x="320" y="1680" as="sourcePoint" />
            <mxPoint x="220" y="1730" as="targetPoint" />
          </mxGeometry>
        </mxCell>
        <mxCell id="6nzBjBsNqCrcRS6qN-k_-73" value="success&amp;nbsp;" style="text;html=1;align=center;verticalAlign=middle;resizable=0;points=[];autosize=1;" vertex="1" parent="WIyWlLk6GJQsqaUBKTNV-1">
          <mxGeometry x="220" y="1670" width="60" height="20" as="geometry" />
        </mxCell>
        <mxCell id="6nzBjBsNqCrcRS6qN-k_-74" value="" style="endArrow=none;html=1;" edge="1" parent="WIyWlLk6GJQsqaUBKTNV-1">
          <mxGeometry width="50" height="50" relative="1" as="geometry">
            <mxPoint x="285" y="1584.5" as="sourcePoint" />
            <mxPoint x="490" y="1585" as="targetPoint" />
          </mxGeometry>
        </mxCell>
        <mxCell id="6nzBjBsNqCrcRS6qN-k_-75" value="fail" style="text;html=1;align=center;verticalAlign=middle;resizable=0;points=[];autosize=1;" vertex="1" parent="WIyWlLk6GJQsqaUBKTNV-1">
          <mxGeometry x="385" y="1600" width="30" height="20" as="geometry" />
        </mxCell>
        <mxCell id="6nzBjBsNqCrcRS6qN-k_-76" value="" style="endArrow=none;html=1;" edge="1" parent="WIyWlLk6GJQsqaUBKTNV-1">
          <mxGeometry width="50" height="50" relative="1" as="geometry">
            <mxPoint x="485" y="1590" as="sourcePoint" />
            <mxPoint x="485" y="1400" as="targetPoint" />
          </mxGeometry>
        </mxCell>
        <mxCell id="6nzBjBsNqCrcRS6qN-k_-77" value="" style="endArrow=classic;html=1;" edge="1" parent="WIyWlLk6GJQsqaUBKTNV-1">
          <mxGeometry width="50" height="50" relative="1" as="geometry">
            <mxPoint x="490" y="1400" as="sourcePoint" />
            <mxPoint x="295" y="1400" as="targetPoint" />
          </mxGeometry>
        </mxCell>
        <mxCell id="6nzBjBsNqCrcRS6qN-k_-78" value="resend otp" style="text;html=1;align=center;verticalAlign=middle;resizable=0;points=[];autosize=1;" vertex="1" parent="WIyWlLk6GJQsqaUBKTNV-1">
          <mxGeometry x="485" y="1490" width="70" height="20" as="geometry" />
        </mxCell>
        <mxCell id="6nzBjBsNqCrcRS6qN-k_-79" value="Go to dashboard Popup will onpen with link of dashboard" style="ellipse;whiteSpace=wrap;html=1;aspect=fixed;" vertex="1" parent="WIyWlLk6GJQsqaUBKTNV-1">
          <mxGeometry x="160" y="1730" width="120" height="120" as="geometry" />
        </mxCell>
        <mxCell id="6nzBjBsNqCrcRS6qN-k_-80" value="" style="endArrow=classic;html=1;exitX=0.5;exitY=1;exitDx=0;exitDy=0;" edge="1" parent="WIyWlLk6GJQsqaUBKTNV-1" source="6nzBjBsNqCrcRS6qN-k_-79" target="6nzBjBsNqCrcRS6qN-k_-81">
          <mxGeometry width="50" height="50" relative="1" as="geometry">
            <mxPoint x="270" y="1790" as="sourcePoint" />
            <mxPoint x="220" y="1910" as="targetPoint" />
          </mxGeometry>
        </mxCell>
        <mxCell id="6nzBjBsNqCrcRS6qN-k_-81" value="Dashboard Page with User name and Their Credit Score" style="ellipse;whiteSpace=wrap;html=1;aspect=fixed;" vertex="1" parent="WIyWlLk6GJQsqaUBKTNV-1">
          <mxGeometry x="160" y="1890" width="120" height="120" as="geometry" />
        </mxCell>
      </root>
    </mxGraphModel>
  </diagram>
</mxfile>
